<svg viewBox="0 0 60 60" xmlns="http://www.w3.org/2000/svg"><path d="m52.17 14.85s0 0 0-.07a1.75 1.75 0 0 0 -.06-.33s0 0 0 0a1.74 1.74 0 0 0 -.18-.33v-.06a1.75 1.75 0 0 0 -.24-.23 1.29 1.29 0 0 0 -.33-.17h-.08a1.15 1.15 0 0 0 -.37-.06h-41.71a1.15 1.15 0 0 0 -.37.06h-.08a1.29 1.29 0 0 0 -.33.17 1.75 1.75 0 0 0 -.24.23l-.05.06a1.74 1.74 0 0 0 -.18.33s0 0 0 0a1.75 1.75 0 0 0 -.06.33s0 0 0 .07v30.27a1.37 1.37 0 0 0 1.31 1.38h41.6a1.37 1.37 0 0 0 1.37-1.38zm-5.17 1.4-15.58 12.91a2.37 2.37 0 0 1 -2.77.05l-15.65-12.96zm-36.4 27.5v-25.95l16.4 13.58a5.07 5.07 0 0 0 3 1 5.31 5.31 0 0 0 3.12-1l16.3-13.58v26z" fill="#ffffff"/></svg>